<svg xmlns="http://www.w3.org/2000/svg" width="3840" height="2160" viewBox="0 0 1280 720" role="img"><title>新品上市</title><defs><linearGradient id="metal" x2=".7" y2="1"><stop stop-color="#F4F9FF"/><stop offset=".48" stop-color="#AEC8E5"/><stop offset="1" stop-color="#4A739E"/></linearGradient><radialGradient id="glass" cx="35%" cy="25%"><stop stop-color="#124568"/><stop offset="1" stop-color="#041323"/></radialGradient><radialGradient id="planet"><stop stop-color="#14364B"/><stop offset=".7" stop-color="#0A2237"/><stop offset="1" stop-color="#09111F"/></radialGradient><linearGradient id="line"><stop stop-color="#6FE8EC"/><stop offset="1" stop-color="#9F8AEC"/></linearGradient></defs><rect width="1280" height="720" rx="32" fill="#0A1828"/><circle cx="900" cy="355" r="245" fill="#69DBE8" opacity=".06"/><g transform="translate(691 112) scale(0.732421875)"><rect x="24" y="24" width="464" height="464" rx="92" fill="#0D1C2D" stroke="#294455" stroke-width="2"/><circle cx="256" cy="256" r="172" fill="#69DBE8" opacity=".06"/><g fill="none" stroke="#69DBE8" stroke-width="12" stroke-linecap="round" stroke-linejoin="round"><path d="M123 363V226L207 177V231L289 176V236H386V363Z M321 232V129H353V232 M157 277H198V318H157Z M230 277H271V318H230Z M307 277H348V318H307Z"/></g></g><text x="82" y="160" fill="#69DBE8" font-size="20" font-family="World Sans SC, Arial, PingFang SC, Microsoft YaHei, sans-serif" >SCENARIO / NEW-PRODUCT</text><text x="80" y="274" fill="#EDF5FB" font-size="66" font-family="World Sans SC, Arial, PingFang SC, Microsoft YaHei, sans-serif" >新品上市</text><text x="84" y="340" fill="#A6B9CF" font-size="28" font-family="World Sans SC, Arial, PingFang SC, Microsoft YaHei, sans-serif" >比较新品介绍的转化假设</text><path d="M85 426H517" stroke="#2C445A" stroke-width="2"/><circle cx="92" cy="426" r="7" fill="#69DBE8"/><text x="84" y="482" fill="#DBE6F7" font-size="24" font-family="World Sans SC, Arial, PingFang SC, Microsoft YaHei, sans-serif" >调整变量  交易转化</text><text x="84" y="528" fill="#8DA9BE" font-size="24" font-family="World Sans SC, Arial, PingFang SC, Microsoft YaHei, sans-serif" >比较基线与情景结果</text><text x="84" y="650" fill="#8DA9BE" font-size="18" font-family="World Sans SC, Arial, PingFang SC, Microsoft YaHei, sans-serif" >方向性线性推演 · 非经营预测</text></svg>
