<svg xmlns="http://www.w3.org/2000/svg" width="3840" height="2160" viewBox="0 0 3840 2160">
<defs><linearGradient id="a" x1="0" y1="0" x2="1" y2="0"><stop stop-color="#22d3ee"/><stop offset=".55" stop-color="#3b82f6"/><stop offset="1" stop-color="#8b5cf6"/></linearGradient></defs>
<rect width="3840" height="2160" fill="none"/>
<g font-family="Inter,Arial">
 <g transform="translate(180 570)">
  <rect width="760" height="760" rx="58" fill="#07152b" stroke="#2975ff" stroke-width="4"/>
  <circle cx="110" cy="110" r="62" fill="#152f7d" stroke="#31e7ff" stroke-width="4"/><text x="82" y="135" font-size="70" fill="#fff" font-weight="700">1</text>
  <text x="80" y="260" font-size="62" fill="#fff" font-weight="800">商业事件</text>
  <text x="80" y="340" font-size="34" fill="#9fc4ff">发现业务中的重要变化</text>
  <rect x="80" y="420" width="600" height="170" rx="28" fill="#0c203e"/><text x="120" y="485" font-size="38" fill="#fff">直播间停留下降</text><text x="560" y="485" font-size="42" fill="#ff6385">-32%</text>
  <rect x="80" y="610" width="600" height="90" rx="24" fill="#0c203e"/><text x="120" y="668" font-size="34" fill="#c6d8f2">投放成本波动  +28%</text>
 </g>
 <path d="M980 950 H1170" stroke="url(#a)" stroke-width="18"/><path d="M1140 910 L1190 950 L1140 990" fill="none" stroke="#4ddcff" stroke-width="18"/>
 <g transform="translate(1210 570)">
  <rect width="760" height="760" rx="58" fill="#07152b" stroke="#2975ff" stroke-width="4"/>
  <circle cx="110" cy="110" r="62" fill="#152f7d" stroke="#7c5cff" stroke-width="4"/><text x="82" y="135" font-size="70" fill="#fff" font-weight="700">2</text>
  <text x="80" y="260" font-size="62" fill="#fff" font-weight="800">行为原型</text>
  <text x="80" y="340" font-size="34" fill="#9fc4ff">识别受影响的关键人群</text>
  <g fill="#0c203e"><rect x="80" y="420" width="600" height="130" rx="28"/><rect x="80" y="570" width="600" height="130" rx="28"/></g>
  <text x="125" y="500" font-size="40" fill="#fff">新手家庭</text><text x="125" y="650" font-size="40" fill="#fff">囤货型家庭</text>
  <text x="460" y="500" font-size="30" fill="#54efc7">关注性价比</text><text x="460" y="650" font-size="30" fill="#bd8cff">追求实惠</text>
 </g>
 <path d="M2010 950 H2200" stroke="url(#a)" stroke-width="18"/><path d="M2170 910 L2220 950 L2170 990" fill="none" stroke="#4ddcff" stroke-width="18"/>
 <g transform="translate(2240 570)">
  <rect width="760" height="760" rx="58" fill="#07152b" stroke="#2975ff" stroke-width="4"/>
  <circle cx="110" cy="110" r="62" fill="#152f7d" stroke="#8b5cf6" stroke-width="4"/><text x="82" y="135" font-size="70" fill="#fff" font-weight="700">3</text>
  <text x="80" y="260" font-size="62" fill="#fff" font-weight="800">模拟与推演</text>
  <text x="80" y="340" font-size="34" fill="#9fc4ff">测试不同策略的可能效果</text>
  <rect x="80" y="420" width="600" height="280" rx="28" fill="#0c203e"/>
  <text x="120" y="492" font-size="34" fill="#b6d4ff">提前 15 分钟发福利</text>
  <text x="120" y="585" font-size="56" fill="#33efcf" font-weight="800">+35%</text><text x="340" y="585" font-size="56" fill="#33efcf" font-weight="800">+22%</text>
  <text x="120" y="650" font-size="28" fill="#9fc4ff">停留时长</text><text x="340" y="650" font-size="28" fill="#9fc4ff">下单转化</text>
 </g>
 <path d="M3040 950 H3230" stroke="url(#a)" stroke-width="18"/><path d="M3200 910 L3250 950 L3200 990" fill="none" stroke="#4ddcff" stroke-width="18"/>
 <g transform="translate(3270 570)">
  <rect width="390" height="760" rx="58" fill="#07152b" stroke="#2975ff" stroke-width="4"/>
  <circle cx="110" cy="110" r="62" fill="#152f7d" stroke="#31e7ff" stroke-width="4"/><text x="82" y="135" font-size="70" fill="#fff" font-weight="700">4</text>
  <text x="70" y="260" font-size="58" fill="#fff" font-weight="800">建议行动</text>
  <text x="70" y="340" font-size="30" fill="#9fc4ff">输出可落地动作</text>
  <rect x="60" y="420" width="270" height="220" rx="28" fill="#0c203e"/><text x="100" y="485" font-size="32" fill="#fff">提前福利</text><text x="100" y="540" font-size="32" fill="#fff">优化投放</text><text x="100" y="595" font-size="32" fill="#fff">加强引导</text>
 </g>
</g>
</svg>